<?xml version="1.0" encoding="utf-8"?>
<!-- Generator: Adobe Illustrator 24.0.1, SVG Export Plug-In . SVG Version: 6.00 Build 0)  -->
<svg version="1.1" id="Layer_1" xmlns="http://www.w3.org/2000/svg" xmlns:xlink="http://www.w3.org/1999/xlink" x="0px" y="0px"
	 viewBox="0 0 960 626" style="enable-background:new 0 0 960 626;" xml:space="preserve">
<style type="text/css">
	.st0{fill:#006782;}
	.st1{fill:#FFFFFF;}
	.st2{opacity:0.2;fill:#006782;}
	.st3{fill:url(#SVGID_1_);}
</style>
<g>
	<g>
		<path class="st0" d="M432.4,169.2c3.2,0,4.8,1.1,4.8,3.4c0,9.2-12.7,35.7-38.2,79.3c1.1,4.1,2.7,8.9,5,14.3l67.7-51.6
			c25.9-19.7,43.4-32.3,52.5-37.9c20.3-12.1,40.2-18.2,59.8-18.2c5.6,0,10.7,0.9,15.4,2.7c2.9,1.1,4.3,3,4.3,5.9
			c0,2.9-0.8,4.3-2.3,4.3c-0.9,0-1.9-0.6-2.8-1.8c-1-1.2-3.9-1.8-8.6-1.8c-4.8,0-12.5,1.2-23.3,3.6c-17,3.8-36.2,12.3-57.7,25.4
			c-13.5,8.3-31.5,21.1-54.1,38.4C432.3,252.6,416,264.5,406,271c7.7,16.2,17.6,31.3,29.8,45.2c18.6,21.7,35.4,32.5,50.2,32.5
			c7.3,0,10.9-2.8,10.9-8.4c0-1.1-0.1-2.1-0.3-3.2c-0.2-1.1,0-2.3,0.8-3.9c0.8-1.5,1.7-2.3,2.7-2.3c2,0,3.3,2.3,3.9,7
			c0.1,0.8,0.2,1.5,0.2,2.3c0,4.8-2.5,8.8-7.4,11.9c-4.9,3.1-10.8,4.7-17.5,4.7c-6.7,0-12.4-1.1-16.9-3.2c-12-5.9-24-16.3-36.2-31.1
			c-12.2-14.8-21.5-30.4-28.1-46.8c-8.3,4.8-15.2,7.5-20.7,8c-10.1,13.2-22.6,26-37.5,38.4c-8,6.8-16.7,12.3-26.1,16.5
			c-9.4,4.2-18.4,6.2-27,6.2c-12.3,0-21.7-3.1-28.4-9.2c-6.7-6.1-10-15.5-10-28.1c0-6.2,1.2-12,3.6-17.3c7.7-17.1,19.4-28.9,35-35.4
			c8.6-3.8,17.2-5.7,25.8-5.7c8.6,0,14.3,2.8,17.2,8.4c1.1,2,1.6,4.1,1.6,6.2c0,2.2-0.3,3.6-0.9,4.2c-0.6,0.6-1.4,0.1-2.5-1.6
			c-3.6-6.7-7.5-10.4-11.6-11.1c-2.7-0.3-4.7-0.5-5.9-0.5c-11.8,0-22.9,4.9-33.2,14.8c-13.3,12.9-20,26.8-20,41.8
			c0,16.4,9.2,25.6,27.7,27.7c0.6,0,1.2,0,1.8,0c6.7,0,15.2-3,25.7-8.9c17-9.7,35.1-26.4,54.3-50c-3.5-3.2-5.2-7.9-5.2-14.1
			c0-6.2,2.3-12.1,6.9-17.6c4.6-5.5,10.9-8.3,19-8.3c2.3,0,4.4,0.2,6.4,0.7c7.6-12.7,14.9-26.5,22-41.2
			c7.1-14.8,10.7-23.3,10.7-25.6c0-0.3-0.5-0.5-1.4-0.5c-0.9,0-6.2,2.4-15.8,7.2c-9.6,4.8-16.5,8.5-20.6,11.2
			c-4.1,2.7-9.1,7-15,12.8c-5.9,5.8-8.9,10.6-8.9,14.2c0,1.7,1.2,3.3,3.5,5c2.3,1.7,6.6,2.5,12.8,2.5c0.8,0.3,1.1,0.7,1.1,1.3
			c0,0.5-2.1,1.1-6.2,1.8c-4.2,0.7-7.5,1-9.9,1c-5.5,0-8.2-2.3-8.2-6.8c0-5.3,3.3-11.7,9.8-19.1c6.5-7.4,13.6-13.3,21.4-17.5
			C412,175.3,426.3,169.2,432.4,169.2z M387.6,251.4c-1.8-0.8-3.8-1.1-6-1.1c-2.2,0-4.4,1.4-6.6,4.1c-2.2,2.7-3.3,5.6-3.3,8.7
			c0,3.1,0.8,5.7,2.5,7.8C381.6,260.4,386.1,253.9,387.6,251.4z M396.2,271c-1.2-3-2.2-6.1-3-9.1c-3,4.4-6.1,8.7-9.1,12.9
			c1.5,0,2.9-0.1,4.1-0.3C389.5,274.3,392.1,273.1,396.2,271z"/>
		<path class="st0" d="M531.6,259.6l3.2-0.7c1.7,0,3.3,0.7,4.8,2c1.5,1.4,2.3,2.4,2.3,3.2c0,0.8-4.7,8.1-14.1,21.9
			c-9.4,13.9-14.1,23.5-14.1,29c0,0.5,0.1,0.9,0.2,1.4c0.8,3.5,2.4,5.2,5,5.2c7.9,0,22.3-13,43.2-39.1c0.5-0.6,1-0.9,1.6-0.9
			c0.6,0,0.9,0.6,0.9,1.7c0,1.1-0.7,2.6-2,4.4c-19.4,25.9-34.2,38.8-44.3,38.8c-1.4,0-2.7-0.2-3.9-0.7c-6.7-2.6-10-7.6-10-15
			c0-2.6,0.3-5.1,0.9-7.7l-14.1,13.6c-8.9,7.9-15.4,11.8-19.4,11.8c-4,0-7.8-1.3-11.5-3.9c-4.1-3-6.1-7-6.1-12
			c0-11.1,7.7-24.3,23.2-39.6c15.4-15.4,29.6-23.1,42.5-23.1c5,0,8.3,1.7,10,5.2c0.5,1.2,0.8,2.2,1.1,3.1
			C531.2,259.2,531.5,259.6,531.6,259.6z M463.7,315.5c0,5.5,1.9,8.2,5.7,8.2c8.8,0,20.7-9.6,35.9-28.8l24.1-33.2
			c-1.2-2.1-3.2-3.2-5.9-3.2c-9.2,0-21.5,7.2-36.8,21.5C471.3,294.3,463.7,306.1,463.7,315.5z"/>
		<path class="st0" d="M595.9,328.7c-11.4,0-17-6.3-17-18.9c0-6.4,1.7-13.3,5-20.9c3.3-7.6,7-13.9,10.9-19.1c-0.8,0.2-1.7,0.2-3,0.2
			c-3.6,0-6.7-2.6-9.1-7.7l-16.8,21.8c-9.4,11.7-14.8,17.5-16.4,17.5c-0.8,0-1.1-0.3-1.1-0.9c0-1.5,1.3-3.7,3.9-6.6
			c13.2-15.3,22.5-28.2,27.9-38.8c3.5-13.2,7.9-19.8,13.2-19.8c3.5,0,5.2,1.5,5.2,4.5s-1.9,6.9-5.7,11.6l-5.5,7.3
			c0,3.2,2.3,4.8,7,4.8c2.7,0,5.8-1,9.1-3l5.9-3.6c0.3-0.2,1.1-0.2,2.3-0.2c1.2,0,2.5,0.8,3.9,2.3c1.4,1.5,1.8,2.9,1.4,4.1
			L601.4,283c-9.7,12.4-14.5,22.2-14.5,29.4c0,7.2,3.3,10.8,10,10.8c7,0,15.5-3.7,25.7-11.1c6.1-4.4,11.6-9.3,16.6-14.8
			c4.7-5.5,7.3-8.2,7.7-8.2c1.1,0,1.6,0.6,1.6,1.7s-0.7,2.5-2,4l-7.3,8.2c-4.1,4.2-8.6,8.3-13.6,12.3
			C613.5,324.2,603.6,328.7,595.9,328.7z"/>
		<path class="st0" d="M714.7,259.6l3.2-0.7c1.7,0,3.3,0.7,4.8,2c1.5,1.4,2.3,2.4,2.3,3.2c0,0.8-4.7,8.1-14.1,21.9
			c-9.4,13.9-14.1,23.5-14.1,29c0,0.5,0.1,0.9,0.2,1.4c0.8,3.5,2.4,5.2,5,5.2c7.9,0,22.3-13,43.2-39.1c0.5-0.6,1-0.9,1.6-0.9
			c0.6,0,0.9,0.6,0.9,1.7c0,1.1-0.7,2.6-2,4.4c-19.4,25.9-34.2,38.8-44.3,38.8c-1.4,0-2.7-0.2-3.9-0.7c-6.7-2.6-10-7.6-10-15
			c0-2.6,0.3-5.1,0.9-7.7l-14.1,13.6c-8.9,7.9-15.4,11.8-19.4,11.8c-4,0-7.8-1.3-11.5-3.9c-4.1-3-6.1-7-6.1-12
			c0-11.1,7.7-24.3,23.2-39.6c15.4-15.4,29.6-23.1,42.5-23.1c5,0,8.3,1.7,10,5.2c0.5,1.2,0.8,2.2,1.1,3.1
			C714.3,259.2,714.6,259.6,714.7,259.6z M646.8,315.5c0,5.5,1.9,8.2,5.7,8.2c8.8,0,20.7-9.6,35.9-28.8l24.1-33.2
			c-1.2-2.1-3.2-3.2-5.9-3.2c-9.2,0-21.5,7.2-36.8,21.5C654.4,294.3,646.8,306.1,646.8,315.5z"/>
		<path class="st0" d="M749.9,330.5c-1.7,0-3.2-0.2-4.5-0.7c-9.7-2.7-14.5-8.2-14.5-16.4c0-10.6,6.7-22.9,20-36.8
			c13.3-13.9,25.3-20.9,35.9-20.9c3.5,0,6.3,0.9,8.5,2.8c2.2,1.9,3.3,4.5,3.3,7.7c0,3.3-1,6.7-3,10.2c-2,3.6-4.9,5.3-8.9,5.3
			c-3.9,0-5.9-1.2-5.9-3.6c0-1.7,1-4.2,3.1-7.6c2-3.4,3.1-5.2,3.1-5.5c0-0.2-0.2-0.3-0.7-0.3c-4.2,0.5-10,3.5-17.4,9.1
			c-7.3,5.6-12.4,10.3-15.1,14.1l-8.9,12.9c-1.5,2.4-2.6,5.3-3.3,8.6c-0.7,3.3-1,5.8-1,7.5c0,1.7,0.9,3.6,2.8,5.7
			c1.9,2.1,4.6,3.2,8.1,3.2c7.6,0,17-4.4,28.2-13.3c11.2-8.9,19.8-17.3,25.9-25.3c0.8-0.9,1.7-1.4,2.7-1.4c1.1,0,1.6,0.3,1.6,0.9
			c0,0.6-0.4,1.4-1.1,2.3c-8.3,11.1-18.3,20.7-29.9,29C767.3,326.4,757.7,330.5,749.9,330.5z"/>
		<path class="st0" d="M850.8,326.6c-8.9,0-13.4-5.2-13.4-15.7c0-5.9,2.1-12.5,6.2-19.7c4.2-7.2,9.3-15.6,15.3-25.3
			c-19.4,9.7-37,24-52.7,42.9c-8.8,13.2-13.9,19.8-15.4,19.8c-4.4,0-6.6-1.3-6.6-3.9c0-1.4,0.9-3.8,2.7-7.3
			c14.7-26.2,25.8-45.4,33.4-57.5c18-28.9,30.7-44.6,38.2-47c0.3-0.2,0.6-0.2,0.9-0.2c2,0,3.3,1.6,4.1,4.8
			c-0.5,3.2-8.3,14.7-23.6,34.5c-15.9,20.1-24.9,33.3-27,39.5c5.6-4.1,15.4-11,29.3-20.7c15-10.4,24.9-15.7,29.8-15.7
			c4.8,0,7.3,1.9,7.3,5.7c0,0.6,0,1-0.1,1.3c-0.1,0.2-5.3,7.4-15.8,21.5c-10.4,14.1-15.7,24.5-15.7,31.1c0,3.5,1.3,5.2,3.9,5.2
			c8.2-0.3,20.4-10.1,36.8-29.5c1.4-1.4,2.4-2,3.1-2c0.7,0,1,0.5,1,1.4c0,3-7.5,11.2-22.5,24.5C860.5,322.6,854.1,326.6,850.8,326.6
			z"/>
		<path class="st0" d="M890.5,330c-7.7,0-11.6-5-11.6-15c0-8.2,4.5-19.5,13.4-34c8.9-14.5,16.1-21.8,21.6-21.9
			c1.5,0,3.2,0.6,5.1,1.8c1.9,1.2,2.8,2.4,2.8,3.6c-0.8,1.1-1.7,2.2-2.7,3.5c-1.1,1.3-2.2,2.7-3.4,4.2c-1.2,1.5-2.9,3.7-5,6.5
			c-2.1,2.8-4.2,5.5-6.1,8.1c-11.4,14.7-17,24.8-17,30.3c0,5.5,1.9,8.3,5.7,8.3c3.2,0,7.5-1.7,12.9-5.2
			c12.7-7.9,22.8-16.5,30.2-25.9c2.7-3.5,4.6-5.2,5.6-5.2s1.5,0.6,1.5,1.8s-1.7,3.6-5.2,7.3c-3.5,3.6-6.2,6.5-8.3,8.6
			c-2,2.1-3.4,3.5-4.2,4.2c-0.8,0.7-2.2,2-4.2,3.9c-2,1.9-3.6,3.2-4.7,4c-1.1,0.8-2.6,1.9-4.5,3.4c-2,1.5-3.7,2.6-5.2,3.3
			c-1.5,0.7-3.3,1.5-5.2,2.4C898.7,329.4,894.9,330,890.5,330z M938.1,237c2,1.4,3.1,3.1,3.1,5.1c0,2-0.9,3.7-2.8,5.1
			c-1.9,1.4-4,2.2-6.2,2.2s-4.4-0.8-6.2-2.5c-1.9-1.7-2.8-3.6-2.8-5.7c0-4.2,2.9-6.4,8.6-6.4C933.9,234.9,936.1,235.6,938.1,237z"/>
	</g>
	<rect x="520" y="344.2" class="st0" width="421.2" height="62.3"/>
	<g>
		<path class="st1" d="M588,358.8v9.1h-27.8v5.4h23.5v8.9h-23.5v14.2h-12.6v-37.7H588z"/>
		<path class="st1" d="M639.6,358.8v28h23.7v9.7h-36.3v-37.7H639.6z"/>
		<path class="st1" d="M736.6,360.5c3.7,1.7,6.7,4.1,8.8,7.1c2.1,3,3.2,6.4,3.2,10.2c0,3.7-1.1,7.1-3.2,10.1s-5,5.3-8.8,7
			s-7.9,2.6-12.6,2.6c-4.5,0-8.6-0.9-12.4-2.6c-3.8-1.7-6.8-4.1-9-7.1c-2.2-3-3.3-6.4-3.3-10c0-3.7,1.1-7.1,3.3-10.1
			c2.2-3,5.2-5.4,9-7.1c3.8-1.7,7.9-2.6,12.4-2.6C728.7,358,732.9,358.8,736.6,360.5z M729.5,386.7c1.7-0.8,3.2-2,4.2-3.5
			s1.6-3.3,1.6-5.4c0-2.1-0.6-3.9-1.7-5.5c-1.1-1.5-2.5-2.7-4.3-3.5c-1.8-0.8-3.6-1.2-5.5-1.2c-1.9,0-3.8,0.4-5.5,1.2
			c-1.7,0.8-3.1,2-4.2,3.5c-1.1,1.5-1.6,3.3-1.6,5.4c0,2.1,0.5,3.9,1.6,5.4c1.1,1.5,2.5,2.7,4.2,3.5c1.7,0.8,3.6,1.2,5.5,1.2
			C726,387.9,727.8,387.5,729.5,386.7z"/>
		<path class="st1" d="M817.5,396.4l-10.4-12.2h-7.8v12.2h-12v-37.7h28.4c3.2,0,5.9,0.5,8.4,1.6c2.4,1.1,4.3,2.5,5.6,4.4
			c1.3,1.9,2,4.1,2,6.5v0.2c0,3.2-0.9,5.9-2.8,8c-1.9,2.1-4.5,3.5-7.8,4.2l10.9,12.7H817.5z M819.1,368.7c-0.6-0.6-1.3-1-2.2-1.1
			c-0.9-0.1-2.2-0.2-3.9-0.2h-1.8c-2.5,0.1-6.5,0.1-12,0.1v8.1H813h0.1c1.7,0,3-0.1,3.9-0.2c0.9-0.1,1.6-0.5,2.2-1
			c0.6-0.6,0.8-1.5,0.8-2.7C820,370.2,819.7,369.3,819.1,368.7z"/>
		<path class="st1" d="M919.9,396.4h-12.7l-3.5-6.5h-21.3l-3.5,6.5h-12.7l20.4-37.7h12.9L919.9,396.4z M893.1,370.3l-6.1,11.2h12.2
			L893.1,370.3z"/>
	</g>
	<path class="st2" d="M311.3,131.7c0,0-89.2,35.5-107.9,178.2s-30.2-202.8,122-243.1h8.2L311.3,131.7z"/>
	<linearGradient id="SVGID_1_" gradientUnits="userSpaceOnUse" x1="266.0889" y1="179.854" x2="264.1024" y2="312.9526">
		<stop  offset="0" style="stop-color:#006782"/>
		<stop  offset="0.2573" style="stop-color:#4F865A"/>
		<stop  offset="0.5243" style="stop-color:#99A434"/>
		<stop  offset="0.7461" style="stop-color:#D0BA18"/>
		<stop  offset="0.9107" style="stop-color:#F2C707"/>
		<stop  offset="1" style="stop-color:#FFCC00"/>
	</linearGradient>
	<path class="st3" d="M237.1,607.7c0,0-155.9-536.5,104.5-560.4c0,0,1.5,123.1-98.5,179.8c0,0,68.4-74.6,76.4-151.7
		c0,0-114.4,40.8-114.4,274.6C205.1,350.1,198.6,414.2,237.1,607.7z"/>
	<path class="st2" d="M153.9,89.9c0,0-35.1,72.4-9,165.6c0,0-69.4-92.5-44-208.2C100.9,47.4,120.3,31.7,153.9,89.9z"/>
	<path class="st2" d="M63,178.1c0,0,1.1,25.4,25.1,58.8S20.6,187.6,33,178.1C45.5,168.7,63,178.1,63,178.1z"/>
	<path class="st0" d="M85.2,187.4c0,0-11.4-19.4-68.6-21.9c0,0,32.8,112.4,162.7,137.3c0,0-88-86.6-73.6-252.2
		c0,0,63.2,34.3,96,109.4c0,0-1.5-65.7-105-141.8c0,0-39.8,121.4,32.8,245.2c0,0-52.2-19.4-87.1-84.1
		C42.4,179.4,57.8,173,85.2,187.4z"/>
</g>
</svg>
